<?xml version="1.0" encoding="iso-8859-1"?>
<!-- Generator: Adobe Illustrator 15.0.0, SVG Export Plug-In . SVG Version: 6.00 Build 0)  -->
<!DOCTYPE svg PUBLIC "-//W3C//DTD SVG 1.1//EN" "http://www.w3.org/Graphics/SVG/1.1/DTD/svg11.dtd">
<svg version="1.1" id="Layer_1" xmlns="http://www.w3.org/2000/svg" xmlns:xlink="http://www.w3.org/1999/xlink" x="0px" y="0px"
	 width="128px" height="128px" viewBox="0 0 128 128" style="enable-background:new 0 0 128 128;" xml:space="preserve">
<g>
	<circle style="fill:#C2D5D8;" cx="64" cy="64" r="64"/>
	<g>
		<path style="fill:#263740;" d="M19,87c-5.233,0-8-2.767-8-8c0-29.225,23.775-53,53-53s53,23.775,53,53c0,5.233-2.767,8-8,8H19z"/>
		<path style="fill:#1E2C33;" d="M64,26c-0.503,0-1,0.023-1.5,0.038C91.032,26.837,114,50.277,114,79c0,5.233-2.767,8-8,8h3
			c5.233,0,8-2.767,8-8C117,49.775,93.225,26,64,26z"/>
		<path style="fill:#F5F5F5;" d="M19,79c0-24.854,20.147-45,45-45s45,20.146,45,45H19z"/>
		<path style="fill:#E6E6E6;" d="M66,34.051C65.336,34.021,64.671,34,64,34c-24.853,0-45,20.146-45,45h4
			C23,54.818,42.076,35.098,66,34.051z"/>
		<path style="fill:#CC6152;" d="M42.182,49.915c-5.673,4.083-10.124,9.805-12.675,16.697c-0.768,2.07,0.291,4.372,2.363,5.139
			c2.063,0.769,4.372-0.29,5.139-2.363c2.087-5.64,5.693-10.218,10.323-13.396L42.182,49.915z"/>
		<path style="fill:#74B340;" d="M90.991,69.388c0.597,1.614,2.125,2.613,3.751,2.613c0.462,0,0.931-0.08,1.388-0.25
			c2.072-0.767,3.131-3.067,2.363-5.139c-2.229-6.021-5.92-11.132-10.596-15.054l-5.479,5.75
			C86.207,60.386,89.176,64.482,90.991,69.388z"/>
		<path style="fill:#E78244;" d="M42.182,49.941l5.135,6.067C52,52.789,57.731,51,64,51v-8C55.866,43,48.316,45.521,42.182,49.941z"
			/>
		<path style="fill:#FFD464;" d="M82.419,57.311l5.479-5.752C81.434,46.137,73.078,43,64,43v8
			C71.066,51,77.449,53.273,82.419,57.311z"/>
		<path style="fill:#E16B5A;" d="M67.093,79c-0.028-0.634-0.246-1.263-0.684-1.787L41.641,47.525
			c-0.257-0.31-0.71-0.383-1.054-0.156c-0.369,0.242-0.472,0.738-0.229,1.107L60.416,79H67.093z"/>
		<path style="fill:#E16B5A;" d="M57,79c0-3.866,3.134-7,7-7s7,3.134,7,7H57z"/>
	</g>
</g>
</svg>
