<?xml version="1.0" encoding="iso-8859-1"?>
<!-- Generator: Adobe Illustrator 15.1.0, SVG Export Plug-In . SVG Version: 6.00 Build 0)  -->
<!DOCTYPE svg PUBLIC "-//W3C//DTD SVG 1.1//EN" "http://www.w3.org/Graphics/SVG/1.1/DTD/svg11.dtd">
<svg version="1.1" id="Layer_1" xmlns="http://www.w3.org/2000/svg" xmlns:xlink="http://www.w3.org/1999/xlink" x="0px" y="0px"
	 width="128px" height="128px" viewBox="0 0 128 128" style="enable-background:new 0 0 128 128;" xml:space="preserve">
<g>
	<circle style="fill:#88C5CC;" cx="64" cy="64" r="64"/>
	<g>
		<g>
			<path style="fill:#F5F5F5;" d="M36,33h74c1.1,0,2,0.9,2,2v53c0,1.1-0.9,2-2,2H18c-1.1,0-2-0.9-2-2V54L36,33z"/>
			<path style="fill:#E6E6E6;" d="M34,54c1.1,0,2-0.9,2-2V33L16,54H34z"/>
		</g>
		<g>
			<rect x="46" y="41" style="fill:#E6E6E6;" width="59" height="4"/>
			<rect x="46" y="49" style="fill:#E6E6E6;" width="59" height="4"/>
			<rect x="23" y="57" style="fill:#E6E6E6;" width="82" height="4"/>
			<rect x="23" y="66" style="fill:#E6E6E6;" width="82" height="4"/>
			<rect x="23" y="75" style="fill:#E6E6E6;" width="70" height="4"/>
		</g>
	</g>
</g>
</svg>
