<?xml version="1.0" encoding="iso-8859-1"?>
<!-- Generator: Adobe Illustrator 15.0.0, SVG Export Plug-In . SVG Version: 6.00 Build 0)  -->
<!DOCTYPE svg PUBLIC "-//W3C//DTD SVG 1.1//EN" "http://www.w3.org/Graphics/SVG/1.1/DTD/svg11.dtd">
<svg version="1.1" id="Layer_1" xmlns="http://www.w3.org/2000/svg" xmlns:xlink="http://www.w3.org/1999/xlink" x="0px" y="0px"
	 width="128px" height="128px" viewBox="0 0 128 128" style="enable-background:new 0 0 128 128;" xml:space="preserve">
<g>
	<circle style="fill:#2D4452;" cx="64" cy="64" r="64"/>
	<path style="fill:#233540;" d="M124.52,84.813V84.81c-0.063-0.176-0.133-0.347-0.209-0.516c-0.062-0.172-0.131-0.339-0.203-0.504
		c-0.063-0.178-0.135-0.351-0.211-0.521c-0.062-0.174-0.131-0.342-0.205-0.509c-0.063-0.176-0.133-0.347-0.209-0.516
		c-0.062-0.174-0.131-0.342-0.205-0.509c-0.063-0.177-0.133-0.348-0.209-0.517c-0.062-0.174-0.131-0.342-0.205-0.509
		c-0.063-0.173-0.131-0.342-0.204-0.508c-0.063-0.178-0.136-0.352-0.21-0.521c-0.063-0.174-0.133-0.342-0.206-0.509
		c-0.063-0.176-0.134-0.347-0.208-0.516c-0.063-0.174-0.133-0.342-0.206-0.509c-0.063-0.177-0.134-0.348-0.208-0.517
		c-0.063-0.174-0.133-0.342-0.206-0.509c-0.063-0.176-0.133-0.347-0.208-0.516c-0.063-0.173-0.131-0.34-0.204-0.505
		c-0.063-0.178-0.134-0.351-0.21-0.521c-0.063-0.174-0.132-0.342-0.206-0.509c-0.062-0.175-0.132-0.346-0.207-0.514
		c-0.063-0.176-0.133-0.347-0.208-0.516c-0.063-0.174-0.132-0.342-0.206-0.509c-0.063-0.176-0.133-0.347-0.208-0.517
		c-0.063-0.172-0.13-0.339-0.203-0.504c-0.063-0.178-0.134-0.351-0.209-0.521c-0.063-0.174-0.133-0.342-0.207-0.509
		c-0.063-0.177-0.133-0.348-0.207-0.517c-0.063-0.174-0.133-0.342-0.207-0.509c-0.062-0.175-0.132-0.345-0.207-0.513
		c-0.063-0.176-0.133-0.348-0.207-0.517c-0.063-0.172-0.131-0.339-0.205-0.504c-0.063-0.178-0.133-0.351-0.209-0.521
		c-0.063-0.174-0.131-0.342-0.205-0.509c-0.063-0.177-0.133-0.348-0.209-0.517c-0.063-0.174-0.131-0.342-0.205-0.509
		c-0.063-0.176-0.133-0.347-0.209-0.516c-0.063-0.175-0.131-0.343-0.205-0.51c-0.063-0.173-0.131-0.342-0.205-0.508
		c-0.063-0.178-0.135-0.351-0.211-0.521c-0.062-0.174-0.131-0.343-0.205-0.509c-0.063-0.177-0.133-0.348-0.208-0.517
		c-0.062-0.174-0.132-0.342-0.206-0.509c-0.063-0.176-0.133-0.347-0.208-0.516c-0.062-0.175-0.132-0.343-0.206-0.51
		c-0.063-0.176-0.133-0.347-0.208-0.516c-0.062-0.172-0.131-0.339-0.204-0.504c-0.063-0.177-0.133-0.35-0.209-0.519
		c-0.063-0.176-0.133-0.347-0.208-0.516c-0.062-0.174-0.132-0.342-0.206-0.509c-0.063-0.176-0.133-0.348-0.208-0.517
		c-0.062-0.174-0.132-0.342-0.206-0.509c-0.063-0.176-0.133-0.347-0.208-0.516c-0.062-0.172-0.13-0.339-0.204-0.504
		c-0.063-0.179-0.133-0.352-0.209-0.521c-0.063-0.174-0.132-0.342-0.205-0.509c-0.063-0.175-0.133-0.345-0.207-0.513
		c-0.063-0.176-0.134-0.348-0.209-0.517c-0.063-0.174-0.132-0.342-0.205-0.509c-0.063-0.176-0.134-0.347-0.209-0.516
		c-0.062-0.172-0.131-0.339-0.203-0.504c-0.063-0.179-0.135-0.352-0.211-0.521c-0.062-0.174-0.131-0.342-0.205-0.509
		c-0.063-0.176-0.133-0.347-0.209-0.516c-0.062-0.175-0.131-0.343-0.205-0.51c-0.063-0.176-0.133-0.347-0.209-0.516
		c-0.062-0.174-0.131-0.342-0.205-0.509c-0.063-0.175-0.133-0.346-0.207-0.514c-0.063-0.174-0.133-0.344-0.207-0.511
		c-0.063-0.175-0.131-0.346-0.206-0.514c-0.063-0.176-0.134-0.347-0.208-0.517c-0.063-0.174-0.133-0.342-0.206-0.509
		c-0.063-0.176-0.134-0.347-0.208-0.516c-0.063-0.174-0.133-0.342-0.206-0.509c-0.063-0.177-0.134-0.348-0.208-0.517
		c-0.063-0.172-0.131-0.339-0.204-0.504c-0.063-0.177-0.133-0.349-0.209-0.518c-0.063-0.176-0.133-0.348-0.208-0.517
		c-0.063-0.174-0.132-0.342-0.206-0.509c-0.063-0.176-0.133-0.347-0.208-0.516c-0.063-0.174-0.132-0.342-0.206-0.509
		c-0.063-0.177-0.133-0.348-0.208-0.517c-0.063-0.172-0.13-0.339-0.204-0.504c-0.063-0.178-0.133-0.351-0.209-0.521
		c-0.063-0.175-0.132-0.343-0.206-0.51c-0.062-0.175-0.132-0.345-0.207-0.513c-0.063-0.176-0.133-0.347-0.207-0.516
		c-0.063-0.175-0.133-0.343-0.207-0.51c-0.063-0.176-0.133-0.347-0.207-0.516c-0.063-0.172-0.132-0.339-0.205-0.504
		c-0.063-0.178-0.133-0.351-0.209-0.521c-0.063-0.175-0.131-0.343-0.205-0.51c-0.063-0.176-0.133-0.347-0.209-0.516
		c-0.063-0.174-0.131-0.342-0.205-0.509c-0.063-0.175-0.133-0.346-0.207-0.514c-0.063-0.176-0.133-0.347-0.209-0.516
		c-0.062-0.172-0.131-0.339-0.203-0.504c-0.063-0.178-0.135-0.352-0.211-0.521c-0.062-0.174-0.131-0.342-0.205-0.509
		c-0.063-0.176-0.133-0.347-0.208-0.516c-0.062-0.174-0.132-0.342-0.206-0.509c-0.063-0.177-0.133-0.348-0.208-0.517
		c-0.062-0.174-0.132-0.342-0.206-0.509c-0.063-0.176-0.133-0.347-0.208-0.516c-0.062-0.173-0.132-0.339-0.204-0.504
		c-0.063-0.178-0.133-0.35-0.209-0.519c-0.063-0.176-0.133-0.347-0.208-0.516c-0.843-2.377-2.892-4.069-5.522-4.43
		c-0.002,0-0.002,0-0.004,0C96.711,26.032,96.361,26,96,26H79H46c-4.784,0-8,3.358-8,8v56h-7.071C27.106,90,24,93.287,24,97
		c0,0.993,0.229,1.953,0.627,2.831c0.063,0.172,0.13,0.342,0.205,0.508c0.063,0.173,0.13,0.343,0.205,0.509
		c0.064,0.177,0.133,0.351,0.211,0.521c0.063,0.172,0.129,0.342,0.205,0.508c0.063,0.175,0.132,0.348,0.209,0.517
		c0.063,0.173,0.129,0.343,0.205,0.509c0.063,0.175,0.132,0.348,0.209,0.517c0.063,0.172,0.129,0.342,0.205,0.508
		c0.063,0.175,0.132,0.349,0.209,0.518c0.062,0.17,0.128,0.339,0.203,0.504c0.063,0.176,0.133,0.35,0.21,0.521
		c0.063,0.172,0.13,0.342,0.206,0.508c0.063,0.175,0.131,0.347,0.207,0.514c0.063,0.175,0.131,0.348,0.208,0.517
		c0.063,0.172,0.13,0.342,0.206,0.508c0.063,0.176,0.131,0.349,0.208,0.518c0.062,0.17,0.128,0.339,0.203,0.504
		c0.063,0.176,0.133,0.35,0.21,0.521c0.063,0.173,0.131,0.343,0.206,0.509c0.063,0.175,0.132,0.348,0.208,0.517
		c0.063,0.172,0.131,0.342,0.206,0.508c0.063,0.174,0.131,0.347,0.207,0.514c0.063,0.175,0.132,0.348,0.208,0.517
		c0.063,0.17,0.129,0.339,0.203,0.504c0.064,0.176,0.133,0.351,0.211,0.521c0.063,0.172,0.13,0.342,0.205,0.508
		c0.063,0.175,0.132,0.348,0.209,0.517c0.063,0.172,0.13,0.342,0.205,0.508c0.063,0.176,0.132,0.349,0.209,0.518
		c0.063,0.172,0.13,0.342,0.205,0.508c0.063,0.173,0.13,0.343,0.205,0.509c0.064,0.177,0.133,0.351,0.211,0.521
		c0.063,0.172,0.129,0.342,0.205,0.508c0.063,0.175,0.132,0.348,0.209,0.517c0.063,0.172,0.129,0.343,0.205,0.509
		c0.063,0.175,0.132,0.348,0.209,0.517c0.063,0.172,0.129,0.342,0.205,0.508c0.063,0.174,0.131,0.345,0.206,0.512
		c0.063,0.175,0.131,0.346,0.208,0.514c0.002,0.006,0.004,0.011,0.006,0.017C41.958,125.021,52.629,128,64,128
		C92.057,128,115.88,109.938,124.52,84.813z"/>
	<path style="fill:#CCCCCC;" d="M96,40c4.033,0,7-3,7-7s-2.967-7-7-7H79v14H96z"/>
	<path style="fill:#B3B3B3;" d="M92,40v-7c0-3.394,1.824-6.424,5.057-6.921C96.713,26.032,96.361,26,96,26H79v14H92z"/>
	<path style="fill:#E6E6E6;" d="M82,104c4.784,0,8-4.358,8-9V33c0-3.713,2.178-7,6-7H46c-4.784,0-8,3.358-8,8v70H82z"/>
	<path style="fill:#CCCCCC;" d="M75,97c0-3,2.177-7,6-7H38v14h43C77.177,104,75,100,75,97z"/>
	<g>
		<path style="fill:#CCCCCC;" d="M61,42H47c-1.104,0-2-0.896-2-2s0.896-2,2-2h14c1.104,0,2,0.896,2,2S62.104,42,61,42z"/>
		<path style="fill:#CCCCCC;" d="M82,52H47c-1.104,0-2-0.896-2-2s0.896-2,2-2h35c1.104,0,2,0.896,2,2S83.104,52,82,52z"/>
		<path style="fill:#CCCCCC;" d="M82,62H47c-1.104,0-2-0.896-2-2s0.896-2,2-2h35c1.104,0,2,0.896,2,2S83.104,62,82,62z"/>
		<path style="fill:#CCCCCC;" d="M82,72H47c-1.104,0-2-0.896-2-2s0.896-2,2-2h35c1.104,0,2,0.896,2,2S83.104,72,82,72z"/>
		<path style="fill:#CCCCCC;" d="M82,82H47c-1.104,0-2-0.896-2-2s0.896-2,2-2h35c1.104,0,2,0.896,2,2S83.104,82,82,82z"/>
	</g>
	<path style="fill:#F5F5F5;" d="M79,104c-3.823,0-6-4-6-7s2.177-7,6-7H30.929C27.106,90,24,93.287,24,97s3.105,7,6.929,7H79z"/>
</g>
</svg>
