<?xml version="1.0" encoding="iso-8859-1"?>
<!-- Generator: Adobe Illustrator 15.1.0, SVG Export Plug-In . SVG Version: 6.00 Build 0)  -->
<!DOCTYPE svg PUBLIC "-//W3C//DTD SVG 1.1//EN" "http://www.w3.org/Graphics/SVG/1.1/DTD/svg11.dtd">
<svg version="1.1" id="Layer_1" xmlns="http://www.w3.org/2000/svg" xmlns:xlink="http://www.w3.org/1999/xlink" x="0px" y="0px"
	 width="128px" height="128px" viewBox="0 0 128 128" style="enable-background:new 0 0 128 128;" xml:space="preserve">
<g>
	<circle style="fill:#2D4452;" cx="64" cy="64" r="64"/>
	<g>
		<path style="fill:#70CCBD;" d="M23,92h-2c-3.309,0-6-2.691-6-6V76c0-3.309,2.691-6,6-6h86c3.309,0,6,2.691,6,6v10
			c0,3.309-2.691,6-6,6H30.523L23,98.271V92z"/>
		<path style="fill:#E6E6E6;" d="M97.477,57H21c-3.309,0-6-2.691-6-6V41c0-3.309,2.691-6,6-6h86c3.309,0,6,2.691,6,6v10
			c0,3.309-2.691,6-6,6h-2v6.271L97.477,57z"/>
		<g>
			<circle style="fill:#E6E6E6;" cx="33" cy="81" r="2"/>
			<circle style="fill:#E6E6E6;" cx="41" cy="81" r="2"/>
			<circle style="fill:#E6E6E6;" cx="49" cy="81" r="2"/>
			<circle style="fill:#E6E6E6;" cx="57" cy="81" r="2"/>
			<circle style="fill:#E6E6E6;" cx="65" cy="81" r="2"/>
		</g>
		<g>
			<circle style="fill:#406A80;" cx="64" cy="46" r="2"/>
			<circle style="fill:#406A80;" cx="72" cy="46" r="2"/>
			<circle style="fill:#406A80;" cx="80" cy="46" r="2"/>
			<circle style="fill:#406A80;" cx="88" cy="46" r="2"/>
			<circle style="fill:#406A80;" cx="96" cy="46" r="2"/>
		</g>
	</g>
</g>
</svg>
