<?xml version="1.0" encoding="iso-8859-1"?>
<!-- Generator: Adobe Illustrator 15.1.0, SVG Export Plug-In . SVG Version: 6.00 Build 0)  -->
<!DOCTYPE svg PUBLIC "-//W3C//DTD SVG 1.1//EN" "http://www.w3.org/Graphics/SVG/1.1/DTD/svg11.dtd">
<svg version="1.1" id="news" xmlns="http://www.w3.org/2000/svg" xmlns:xlink="http://www.w3.org/1999/xlink" x="0px" y="0px"
	 width="128px" height="128px" viewBox="0 0 128 128" style="enable-background:new 0 0 128 128;" xml:space="preserve">
<g>
	<circle style="fill:#2D4452;" cx="64" cy="64" r="64"/>
	<g>
		<g>
			<defs>
				<path id="SVGID_1_" d="M128,64c0,35.375-28.654,64-64,64C28.654,128,0,99.375,0,64S28.654,0,64,0C99.346,0,128,28.625,128,64z"
					/>
			</defs>
			<clipPath id="SVGID_2_">
				<use xlink:href="#SVGID_1_"  style="overflow:visible;"/>
			</clipPath>
			<g style="clip-path:url(#SVGID_2_);">
				<path style="fill:#FFEEBF;" d="M41,132.2V50H21.4c-4.105,0-5.4,1.215-5.4,5.2V133.6c0,6.642,5.556,11.4,12.4,11.4H41V132.2z"/>
				<path style="fill:#FFF1CC;" d="M123.6,34h-77c-4.104,0-5.6,1.816-5.6,5.8v92.4V145h81.2c4.104,0,6.8-3.214,6.8-7.2v-98
					C129,35.816,127.705,34,123.6,34z"/>
				<rect x="90" y="61" style="fill:#E6D9B8;" width="31" height="28"/>
				<rect x="38" y="50" style="fill:#F2E2B5;" width="3" height="95"/>
				<rect x="49" y="44" style="fill:#E6D9B8;" width="72" height="10"/>
				<rect x="49" y="64" style="fill:#E6D9B8;" width="37" height="2"/>
				<rect x="49" y="69" style="fill:#E6D9B8;" width="37" height="3"/>
				<rect x="49" y="75" style="fill:#E6D9B8;" width="37" height="3"/>
				<rect x="49" y="80" style="fill:#E6D9B8;" width="37" height="3"/>
				<rect x="49" y="86" style="fill:#E6D9B8;" width="37" height="3"/>
				<rect x="49" y="94" style="fill:#E6D9B8;" width="72" height="3"/>
				<rect x="49" y="100" style="fill:#E6D9B8;" width="72" height="3"/>
				<rect x="49" y="106" style="fill:#E6D9B8;" width="72" height="2"/>
				<rect x="49" y="111" style="fill:#E6D9B8;" width="72" height="3"/>
				<rect x="49" y="117" style="fill:#E6D9B8;" width="72" height="3"/>
				<rect x="49" y="122" style="fill:#E6D9B8;" width="72" height="3"/>
				<rect x="49" y="128" style="fill:#E6D9B8;" width="72" height="3"/>
			</g>
		</g>
	</g>
</g>
</svg>
