<?xml version="1.0" encoding="utf-8"?>
<!-- Generator: Adobe Illustrator 16.0.0, SVG Export Plug-In . SVG Version: 6.00 Build 0)  -->
<!DOCTYPE svg PUBLIC "-//W3C//DTD SVG 1.1//EN" "http://www.w3.org/Graphics/SVG/1.1/DTD/svg11.dtd">
<svg version="1.1" id="Layer_1" xmlns="http://www.w3.org/2000/svg" xmlns:xlink="http://www.w3.org/1999/xlink" x="0px" y="0px"
	 width="128px" height="128px" viewBox="0 0 128 128" enable-background="new 0 0 128 128" xml:space="preserve">
<g>
	<circle fill="#E1574C" cx="64" cy="64" r="64"/>
	<path fill="#CE413A" d="M87.853,25.461l-1.782,2.431L27.668,89.73l-0.793,2.008l36.142,36.236C63.345,127.979,63.67,128,64,128
		c34.785,0,63.069-27.758,63.958-62.329L87.853,25.461z"/>
	<path fill="#FFFFFF" d="M89.371,88.576V30.188c0-3.248-2.659-5.907-5.908-5.907H32.238c-3.249,0-5.908,2.659-5.908,5.907v58.755
		c0,3.248,2.659,5.908,5.908,5.908h38.073"/>
	<g>
		<path fill="#334E5D" d="M71.348,41.92H43.495c-0.395,0-0.714-0.319-0.714-0.714s0.319-0.713,0.714-0.713h27.853
			c0.394,0,0.714,0.318,0.714,0.713S71.741,41.92,71.348,41.92z"/>
	</g>
	<g>
		<path fill="#334E5D" d="M71.348,51.015H43.495c-0.395,0-0.714-0.32-0.714-0.715c0-0.394,0.319-0.713,0.714-0.713h27.853
			c0.394,0,0.714,0.319,0.714,0.713C72.062,50.694,71.741,51.015,71.348,51.015z"/>
	</g>
	<g>
		<path fill="#334E5D" d="M59.836,62.101H43.495c-0.395,0-0.714-0.319-0.714-0.714c0-0.394,0.319-0.712,0.714-0.712h16.341
			c0.394,0,0.713,0.318,0.713,0.712C60.549,61.781,60.229,62.101,59.836,62.101z"/>
	</g>
	<path fill="#EDC55D" d="M102.992,77.771L102.992,77.771l-6.134-12.919c-0.927-1.959-3.14-2.868-4.921-2.023
		c-1.775,0.841-2.47,3.135-1.538,5.092l3.788,7.981l-0.999,0.359l-4.777-10.069c-0.929-1.958-3.142-2.868-4.917-2.023
		c-1.779,0.844-2.472,3.135-1.544,5.092l4.481,9.442l-0.993,0.359l-4.956-10.441c-0.931-1.954-3.146-2.864-4.922-2.02
		c-1.777,0.84-2.469,3.133-1.538,5.087l4.657,9.813l-1.017,0.371c-0.025-0.066-0.042-0.133-0.071-0.199l-9.772-20.586l-0.84-1.772
		l-1.076-2.263c-0.929-1.958-3.142-2.868-4.919-2.022c-1.538,0.729-2.259,2.539-1.825,4.285l0.743,1.772l11.082,23.344l-0.663,0.314
		l-7.227-7.432c-1.511-1.553-3.941-1.66-5.4-0.24c-1.462,1.42-1.417,3.852,0.092,5.404l16.313,16.77l0,0
		c0,0.004,0.003,0.004,0.003,0.004l2.688,2.764c0.415,0.426,0.904,0.732,1.418,0.939c5.469,4.252,9.127,4.41,9.127,4.41
		l16.828-7.988C107.327,88.066,102.992,77.771,102.992,77.771z"/>
</g>
</svg>
