<?xml version="1.0" encoding="iso-8859-1"?>
<!-- Generator: Adobe Illustrator 15.0.0, SVG Export Plug-In . SVG Version: 6.00 Build 0)  -->
<!DOCTYPE svg PUBLIC "-//W3C//DTD SVG 1.1//EN" "http://www.w3.org/Graphics/SVG/1.1/DTD/svg11.dtd">
<svg version="1.1" id="Layer_1" xmlns="http://www.w3.org/2000/svg" xmlns:xlink="http://www.w3.org/1999/xlink" x="0px" y="0px"
	 width="128px" height="128px" viewBox="0 0 128 128" style="enable-background:new 0 0 128 128;" xml:space="preserve">
<g>
	<circle style="fill:#C2D5D8;" cx="64" cy="64" r="64"/>
	<circle style="fill:#C2D5D8;" cx="64" cy="64" r="64"/>
	<path style="fill:#45998B;" d="M40.203,83.793c-5.23,0-26.492-1.296-31.91,11.619C14.169,105.781,22.844,114,33.307,120h6.896
		h20.014c0,0,16.012-5.514,12.811-21.602C69.823,82.311,45.807,83.793,40.203,83.793z"/>
	<path style="fill:#3F8C7F;" d="M73.025,98.482C70.048,83.523,49.087,83.682,41.65,83.777c9.129,0.162,24.951,1.856,27.508,14.705
		c3.201,16.088-12.809,21.685-12.809,21.685h3.866C60.217,120.167,76.229,114.57,73.025,98.482z"/>
	<ellipse style="fill:#F5F5F5;" cx="40.203" cy="84.842" rx="9.793" ry="3.847"/>
	<path style="fill:#E6CBC3;" d="M48.889,82.788h0.004l-2.395-7.448l-6.295-0.466l-6.296,0.466l-2.396,7.448h0.004
		c-0.035,0.103-0.058,0.206-0.058,0.31c0,1.543,3.915,2.793,8.744,2.793c4.827,0,8.743-1.25,8.743-2.793
		C48.945,82.994,48.925,82.891,48.889,82.788z"/>
	<path style="fill:#D9BFB8;" d="M48.889,82.788h0.004l-2.395-7.448l-6.295-0.466l-1.225,0.09l5.07,0.376l2.395,7.448h-0.002
		c0.035,0.103,0.057,0.206,0.057,0.31c0,1.409-3.271,2.572-7.52,2.764c0.4,0.018,0.808,0.029,1.225,0.029
		c4.828,0,8.743-1.25,8.743-2.793C48.945,82.994,48.925,82.891,48.889,82.788z"/>
	<path style="fill:#FFE1D9;" d="M58.391,45.32v-7.276c0-5.675-4.037-10.211-18.188-10.211c-14.151,0-18.188,4.536-18.188,10.211
		v7.276c0,0-2.799,0.207-2.799,2.099v7.743c0,1.892,0.699,3.449,2.799,3.449c0,9.459,8.409,20.286,18.188,20.286
		c9.775,0,18.188-10.826,18.188-20.286c2.099,0,2.797-1.557,2.797-3.449v-7.743C61.188,45.527,58.391,45.32,58.391,45.32z"/>
	<path style="fill:#F2D6CE;" d="M40.203,27.833c-0.357,0-0.705,0.005-1.051,0.011c13.3,0.221,17.139,4.668,17.139,10.2v7.276v13.291
		c0,9.118-7.816,19.504-17.139,20.241c0.35,0.027,0.697,0.045,1.051,0.045c9.775,0,18.188-10.826,18.188-20.286V45.32v-7.276
		C58.391,32.369,54.354,27.833,40.203,27.833z"/>
	<path style="fill:#99602E;" d="M40.203,27.833c-14.15,0-18.188,4.536-18.188,10.211v7.276v7.695
		c0.646-3.239,2.498-12.473,6.655-15.487c3.31,0.946,7.271,1.497,11.531,1.497c4.26,0,8.222-0.551,11.53-1.497
		c4.158,3.015,6.009,12.248,6.656,15.487V45.32v-7.276C58.391,32.369,54.354,27.833,40.203,27.833z"/>
	<path style="fill:#8C582A;" d="M40.203,27.833c-0.357,0-0.703,0.005-1.049,0.011c13.298,0.222,17.137,4.668,17.137,10.2v6.904
		c1.113,3.167,1.768,6.406,2.1,8.067V45.32v-7.276C58.391,32.369,54.354,27.833,40.203,27.833z"/>
	<ellipse style="fill:#F5F5F5;" cx="34.641" cy="50.917" rx="2.797" ry="2.099"/>
	<circle style="fill:#734822;" cx="34.641" cy="50.917" r="1.399"/>
	<ellipse style="fill:#F5F5F5;" cx="47.23" cy="50.917" rx="2.797" ry="2.099"/>
	<circle style="fill:#734822;" cx="47.23" cy="50.917" r="1.399"/>
	<path style="fill:#45998B;" d="M119.707,95.412c-5.418-12.916-26.68-11.661-31.91-11.661c-5.604,0-29.62-1.461-32.822,14.627
		C51.771,114.466,67.784,120,67.784,120h20.014h6.897C105.156,114,113.831,105.781,119.707,95.412z"/>
	<path style="fill:#45998B;" d="M67.67,127.889c0.934-0.054,1.861-0.121,2.782-0.213c0.037-0.003,0.073-0.005,0.11-0.009
		c0.944-0.097,1.881-0.222,2.813-0.356c0.256-0.039,0.511-0.078,0.767-0.119c0.846-0.135,1.687-0.282,2.521-0.449
		c0.096-0.02,0.192-0.035,0.29-0.055c0.89-0.184,1.771-0.392,2.646-0.611c0.278-0.07,0.558-0.143,0.836-0.217
		c0.733-0.194,1.463-0.4,2.188-0.621c0.189-0.059,0.382-0.111,0.57-0.172c0.8-0.25,1.589-0.521,2.373-0.801
		c0.316-0.115,0.633-0.23,0.947-0.35c0.602-0.227,1.196-0.462,1.789-0.706c0.35-0.144,0.696-0.287,1.043-0.437
		c0.644-0.277,1.279-0.566,1.912-0.864c0.361-0.171,0.721-0.347,1.078-0.523c0.461-0.229,0.918-0.464,1.373-0.704
		c0.535-0.281,1.064-0.568,1.592-0.865c0.451-0.254,0.901-0.51,1.346-0.773c0.408-0.243,0.813-0.492,1.217-0.744
		c0.32-0.201,0.64-0.406,0.957-0.613c0.742-0.484,1.476-0.982,2.197-1.496c0.231-0.164,0.465-0.326,0.694-0.494
		c0.449-0.328,0.894-0.664,1.332-1.004c0.197-0.151,0.392-0.307,0.586-0.459c0.943-0.746,1.869-1.515,2.769-2.312
		c0.012-0.01,0.022-0.021,0.033-0.028c0.476-0.422,0.941-0.851,1.402-1.285c0.098-0.09,0.191-0.183,0.287-0.273
		c1.418-1.352,2.775-2.768,4.064-4.242c0.028-0.031,0.057-0.064,0.084-0.096c2.687-3.087,5.082-6.432,7.145-9.996H8.584
		c2.063,3.563,4.458,6.909,7.145,9.996c0.027,0.031,0.056,0.064,0.084,0.096c1.289,1.477,2.646,2.891,4.064,4.242
		c0.096,0.091,0.189,0.184,0.287,0.273c0.461,0.435,0.928,0.863,1.402,1.285c0.011,0.01,0.021,0.019,0.033,0.028
		c0.898,0.797,1.824,1.565,2.769,2.312c0.194,0.153,0.389,0.309,0.586,0.459c0.438,0.341,0.883,0.676,1.332,1.004
		c0.229,0.168,0.463,0.33,0.694,0.494c0.723,0.514,1.455,1.012,2.197,1.496c0.317,0.207,0.637,0.412,0.957,0.613
		c0.402,0.252,0.809,0.501,1.217,0.744c0.443,0.266,0.895,0.521,1.346,0.773c0.525,0.295,1.057,0.584,1.592,0.865
		c0.455,0.239,0.912,0.476,1.373,0.704c0.357,0.177,0.717,0.353,1.078,0.523c0.634,0.298,1.271,0.588,1.917,0.866
		c0.344,0.147,0.69,0.291,1.036,0.434c0.594,0.244,1.189,0.48,1.791,0.706c0.314,0.119,0.631,0.235,0.947,0.349
		c0.784,0.281,1.573,0.553,2.372,0.803c0.189,0.06,0.382,0.113,0.572,0.172c0.724,0.22,1.453,0.426,2.188,0.621
		c0.277,0.074,0.557,0.146,0.836,0.216c0.875,0.22,1.756,0.428,2.646,0.61c0.097,0.021,0.194,0.037,0.29,0.056
		c0.834,0.167,1.675,0.315,2.521,0.45c0.254,0.041,0.51,0.08,0.766,0.117c0.934,0.137,1.869,0.262,2.814,0.357
		c0.035,0.004,0.072,0.006,0.109,0.009c0.921,0.093,1.85,0.159,2.782,0.212c0.248,0.014,0.495,0.027,0.743,0.038
		C62.045,127.97,63.02,128,64,128s1.955-0.03,2.926-0.074C67.174,127.915,67.422,127.902,67.67,127.889z"/>
	<path style="fill:#3F8C7F;" d="M89.246,83.779c9.128,0.162,24.949,1.855,27.507,14.703c0.097,0.481,0.173,0.953,0.233,1.416
		c0.968-1.424,1.865-2.896,2.718-4.397C114.695,83.555,96.148,83.689,89.246,83.779z"/>
	<ellipse style="fill:#F5F5F5;" cx="87.797" cy="84.842" rx="9.793" ry="3.847"/>
	<path style="fill:#E6CBC3;" d="M96.482,82.788h0.004l-2.395-7.448l-6.296-0.466l-6.295,0.466l-2.396,7.448h0.004
		c-0.035,0.103-0.058,0.206-0.058,0.31c0,1.543,3.915,2.793,8.743,2.793c4.829,0,8.744-1.25,8.744-2.793
		C96.541,82.994,96.52,82.891,96.482,82.788z"/>
	<path style="fill:#D9BFB8;" d="M96.482,82.788h0.004l-2.395-7.448l-6.296-0.466l-1.224,0.09l5.07,0.376l2.396,7.448h-0.004
		c0.036,0.103,0.058,0.206,0.058,0.31c0,1.409-3.271,2.572-7.52,2.764c0.4,0.018,0.808,0.029,1.224,0.029
		c4.829,0,8.744-1.25,8.744-2.793C96.541,82.994,96.52,82.891,96.482,82.788z"/>
	<path style="fill:#FFE1D9;" d="M105.984,45.32v-7.276c0-5.675-4.037-10.211-18.188-10.211s-18.187,4.536-18.187,10.211v7.276
		c0,0-2.799,0.207-2.799,2.099v7.743c0,1.892,0.699,3.449,2.799,3.449c0,9.459,8.41,20.286,18.187,20.286
		c9.777,0,18.188-10.826,18.188-20.286c2.099,0,2.798-1.557,2.798-3.449v-7.743C108.782,45.527,105.984,45.32,105.984,45.32z"/>
	<path style="fill:#F2D6CE;" d="M87.797,27.833c-0.357,0-0.704,0.005-1.049,0.011c13.299,0.221,17.138,4.668,17.138,10.2v7.276
		v13.291c0,9.118-7.815,19.504-17.138,20.241c0.35,0.027,0.697,0.045,1.049,0.045c9.777,0,18.188-10.826,18.188-20.286V45.32v-7.276
		C105.984,32.369,101.947,27.833,87.797,27.833z"/>
	<path style="fill:#99602E;" d="M87.797,27.833c-14.15,0-18.188,4.536-18.188,10.211v7.276v7.695
		c0.647-3.239,2.498-12.473,6.656-15.487c3.31,0.946,7.271,1.497,11.53,1.497s8.224-0.551,11.531-1.497
		c4.157,3.015,6.009,12.248,6.655,15.487V45.32v-7.276C105.984,32.369,101.947,27.833,87.797,27.833z"/>
	<path style="fill:#8C582A;" d="M87.797,27.833c-0.355,0-0.701,0.005-1.047,0.011c13.297,0.222,17.136,4.668,17.136,10.2v6.904
		c1.114,3.167,1.767,6.406,2.099,8.067V45.32v-7.276C105.984,32.369,101.947,27.833,87.797,27.833z"/>
	<ellipse style="fill:#F5F5F5;" cx="82.234" cy="50.917" rx="2.798" ry="2.099"/>
	<circle style="fill:#734822;" cx="82.234" cy="50.917" r="1.399"/>
	<ellipse style="fill:#F5F5F5;" cx="94.825" cy="50.917" rx="2.798" ry="2.099"/>
	<circle style="fill:#734822;" cx="94.825" cy="50.917" r="1.399"/>
	<path style="fill:#F5F5F5;" d="M84,92H70c-3.309,0-6,2.691-6,6c0-3.309-2.691-6-6-6H44c-3.309,0-6,2.691-6,6v14
		c0,3.309,2.691,6,6,6h14c3.309,0,6-2.691,6-6c0,3.309,2.691,6,6,6h14c3.309,0,6-2.691,6-6V98C90,94.691,87.309,92,84,92z"/>
	<path style="fill:#FFD464;" d="M75,107H53c-1.104,0-2-0.896-2-2s0.896-2,2-2h22c1.104,0,2,0.896,2,2S76.104,107,75,107z"/>
	<path style="fill:#E16B5A;" d="M84,94H70c-2.206,0-4,1.794-4,4v3h4v-3h14l-0.006,14H70v-3h-4v3c0,2.206,1.794,4,4,4h14
		c2.206,0,4-1.794,4-4V98C88,95.794,86.206,94,84,94z"/>
	<path style="fill:#E16B5A;" d="M58,109v3H44V98h14l-0.001,3H62v-3c0-2.206-1.794-4-4-4H44c-2.206,0-4,1.794-4,4v14
		c0,2.206,1.794,4,4,4h14c2.206,0,4-1.794,4-4v-3H58z"/>
</g>
</svg>
