<?xml version="1.0" encoding="iso-8859-1"?>
<!-- Generator: Adobe Illustrator 15.0.0, SVG Export Plug-In . SVG Version: 6.00 Build 0)  -->
<!DOCTYPE svg PUBLIC "-//W3C//DTD SVG 1.1//EN" "http://www.w3.org/Graphics/SVG/1.1/DTD/svg11.dtd">
<svg version="1.1" id="Layer_1" xmlns="http://www.w3.org/2000/svg" xmlns:xlink="http://www.w3.org/1999/xlink" x="0px" y="0px"
	 width="128px" height="128px" viewBox="0 0 128 128" style="enable-background:new 0 0 128 128;" xml:space="preserve">
<g>
	<circle style="fill:#88C5CC;" cx="64" cy="64" r="64"/>
	<g>
		<rect x="53" y="91" style="fill:#E6E6E6;" width="22" height="9"/>
		<path style="fill:#1E2C33;" d="M21,82V37.341C21,36.09,21.852,36,23.047,36h82c1.196,0,1.953,0.09,1.953,1.341V82H21z"/>
		<path style="fill:#F5F5F5;" d="M21,82v7.25c0,1.195,0.852,2.75,2.047,2.75h82c1.196,0,1.953-1.555,1.953-2.75V82H21z"/>
		<rect x="25" y="40" style="fill:#FFFFFF;" width="78" height="38"/>
		<path style="fill:#F5F5F5;" d="M82,102c0-1.104-0.896-2-2-2H48c-1.104,0-2,0.896-2,2l0,0c0,1.104,0.896,2,2,2h32
			C81.104,104,82,103.104,82,102L82,102z"/>
		<circle style="fill:#1E2C33;" cx="64.047" cy="86.25" r="2"/>
	</g>
	<g>
		<rect x="54" y="65" style="fill:#CC584C;" width="4" height="9"/>
		<rect x="62" y="69" style="fill:#C23527;" width="4" height="5"/>
		<rect x="86" y="64" style="fill:#198058;" width="4" height="10"/>
		<rect x="70" y="61" style="fill:#E78244;" width="4" height="13"/>
		<rect x="78" y="54" style="fill:#FFC066;" width="4" height="20"/>
		<rect x="41" y="45" style="fill:#198058;" width="1" height="31"/>
		<rect x="42.823" y="75.393" style="fill:#198058;" width="0.608" height="0.607"/>
		<rect x="44.647" y="75.393" style="fill:#198058;" width="0.608" height="0.607"/>
		<rect x="48.294" y="75.393" style="fill:#198058;" width="0.608" height="0.607"/>
		<rect x="50.118" y="75.393" style="fill:#198058;" width="0.608" height="0.607"/>
		<rect x="51.941" y="75.393" style="fill:#198058;" width="0.607" height="0.607"/>
		<rect x="53.765" y="75.393" style="fill:#198058;" width="0.608" height="0.607"/>
		<rect x="55.588" y="75.393" style="fill:#198058;" width="0.607" height="0.607"/>
		<rect x="57.412" y="75.393" style="fill:#198058;" width="0.608" height="0.607"/>
		<rect x="59.235" y="75.393" style="fill:#198058;" width="0.608" height="0.607"/>
		<rect x="61.059" y="75.393" style="fill:#198058;" width="0.608" height="0.607"/>
		<rect x="62.882" y="75.393" style="fill:#198058;" width="0.608" height="0.607"/>
		<rect x="64.706" y="75.393" style="fill:#198058;" width="0.608" height="0.607"/>
		<rect x="66.529" y="75.393" style="fill:#198058;" width="0.607" height="0.607"/>
		<rect x="68.354" y="75.393" style="fill:#198058;" width="0.607" height="0.607"/>
		<rect x="70.177" y="75.393" style="fill:#198058;" width="0.607" height="0.607"/>
		<rect x="72" y="75.393" style="fill:#198058;" width="0.607" height="0.607"/>
		<rect x="73.823" y="75.393" style="fill:#198058;" width="0.608" height="0.607"/>
		<rect x="75.646" y="75.393" style="fill:#198058;" width="0.608" height="0.607"/>
		<rect x="77.471" y="75.393" style="fill:#198058;" width="0.607" height="0.607"/>
		<rect x="79.294" y="75.393" style="fill:#198058;" width="0.608" height="0.607"/>
		<rect x="81.118" y="75.393" style="fill:#198058;" width="0.608" height="0.607"/>
		<rect x="82.941" y="75.393" style="fill:#198058;" width="0.606" height="0.607"/>
		<rect x="84.766" y="75.393" style="fill:#198058;" width="0.607" height="0.607"/>
		<rect x="86.588" y="75.393" style="fill:#198058;" width="0.607" height="0.607"/>
		<rect x="88.412" y="75.393" style="fill:#198058;" width="0.607" height="0.607"/>
		<rect x="46.47" y="75.393" style="fill:#198058;" width="0.608" height="0.607"/>
		<rect x="42" y="66" style="fill:#198058;" width="2" height="1"/>
		<rect x="42" y="57" style="fill:#198058;" width="2" height="1"/>
		<rect x="42" y="47" style="fill:#198058;" width="2" height="1"/>
		<path style="fill:#CC584C;" d="M45.011,73.717c-0.233,0-0.468-0.082-0.658-0.248c-0.416-0.363-0.458-0.994-0.094-1.41
			l11.063-12.644c0.318-0.364,0.852-0.449,1.267-0.199l7.232,4.34l7.304-7.304l7.861-10.222c0.205-0.267,0.525-0.417,0.867-0.387
			c0.336,0.025,0.637,0.217,0.801,0.511l7.902,14.225c0.269,0.483,0.094,1.092-0.389,1.36c-0.482,0.268-1.092,0.093-1.359-0.388
			l-7.164-12.894l-6.974,9.067c-0.026,0.034-0.055,0.067-0.085,0.097l-7.902,7.902c-0.324,0.324-0.827,0.387-1.222,0.149
			l-7.185-4.312L45.764,73.376C45.566,73.602,45.29,73.717,45.011,73.717z"/>
	</g>
</g>
</svg>
