<?xml version="1.0" encoding="iso-8859-1"?>
<!-- Generator: Adobe Illustrator 15.0.0, SVG Export Plug-In . SVG Version: 6.00 Build 0)  -->
<!DOCTYPE svg PUBLIC "-//W3C//DTD SVG 1.1//EN" "http://www.w3.org/Graphics/SVG/1.1/DTD/svg11.dtd">
<svg version="1.1" id="Layer_1" xmlns="http://www.w3.org/2000/svg" xmlns:xlink="http://www.w3.org/1999/xlink" x="0px" y="0px"
	 width="128px" height="128px" viewBox="0 0 128 128" style="enable-background:new 0 0 128 128;" xml:space="preserve">
<g>
	<circle style="fill:#88C5CC;" cx="64" cy="64" r="64"/>
	<path style="fill:#CCCCCC;" d="M25,99c-3.859,0-7-3.141-7-7V35c0-3.859,2.141-6,6-6h79c3.859,0,7,3.141,7,7v56c0,3.859-3.141,7-7,7
		H25z"/>
	<circle style="fill:#CC584C;" cx="23.953" cy="35" r="2"/>
	<circle style="fill:#FFD464;" cx="29.953" cy="35" r="2"/>
	<circle style="fill:#198058;" cx="35.953" cy="35" r="2"/>
	<path style="fill:#F5F5F5;" d="M100.953,36c0,0.55-0.45,1-1,1h-58c-0.55,0-1-0.45-1-1v-2c0-0.55,0.45-1,1-1h58c0.55,0,1,0.45,1,1
		V36z"/>
	<path style="fill:#F5F5F5;" d="M106,93c0,1.1-0.9,2-2,2H24c-1.1,0-2-0.9-2-2V43c0-1.1,0.9-2,2-2h80c1.1,0,2,0.9,2,2V93z"/>
	<rect x="25" y="44" style="fill:#406A80;" width="78" height="9"/>
	<rect x="25" y="55" style="fill:#406A80;" width="17" height="18"/>
	<rect x="85" y="78" style="fill:#FFD464;" width="17" height="14"/>
	<g>
		<rect x="44" y="55" style="fill:#406A80;" width="59" height="2"/>
		<rect x="44" y="59" style="fill:#406A80;" width="59" height="2"/>
		<rect x="44" y="63" style="fill:#406A80;" width="59" height="2"/>
		<rect x="44" y="67" style="fill:#406A80;" width="59" height="2"/>
		<rect x="44" y="71" style="fill:#406A80;" width="59" height="2"/>
	</g>
	<g>
		<rect x="25" y="78" style="fill:#B3B3B3;" width="59" height="2"/>
		<rect x="25" y="82" style="fill:#B3B3B3;" width="59" height="2"/>
		<rect x="25" y="86" style="fill:#B3B3B3;" width="59" height="2"/>
		<rect x="25" y="90" style="fill:#B3B3B3;" width="59" height="2"/>
	</g>
</g>
</svg>
