<?xml version="1.0" encoding="iso-8859-1"?>
<!-- Generator: Adobe Illustrator 15.1.0, SVG Export Plug-In . SVG Version: 6.00 Build 0)  -->
<!DOCTYPE svg PUBLIC "-//W3C//DTD SVG 1.1//EN" "http://www.w3.org/Graphics/SVG/1.1/DTD/svg11.dtd">
<svg version="1.1" id="Layer_1" xmlns="http://www.w3.org/2000/svg" xmlns:xlink="http://www.w3.org/1999/xlink" x="0px" y="0px"
	 width="128px" height="128px" viewBox="0 0 128 128" style="enable-background:new 0 0 128 128;" xml:space="preserve">
<g>
	<circle style="fill:#2D4452;" cx="64" cy="64" r="64"/>
	<g>
		<path style="fill:#F5F5F5;" d="M49,18h44c1.1,0,2,0.9,2,2v82c0,1.1-0.9,2-2,2H31c-1.1,0-2-0.9-2-2V39L49,18z"/>
		<path style="fill:#E6E6E6;" d="M47,39c1.1,0,2-0.9,2-2V18L29,39H47z"/>
	</g>
	<path style="fill:#E16B5A;" d="M61,52c-5.522,0-10,4.478-10,10h10V52z"/>
	<path style="fill:#2179A6;" d="M63,54v10H53c0,5.522,4.478,10,10,10s10-4.478,10-10S68.522,54,63,54z"/>
	<rect x="75" y="54" style="fill:#B3B3B3;" width="11" height="2"/>
	<rect x="38" y="54" style="fill:#B3B3B3;" width="11" height="2"/>
	<rect x="33" y="57" style="fill:#B3B3B3;" width="16" height="2"/>
	<rect x="33" y="60" style="fill:#B3B3B3;" width="16" height="2"/>
	<rect x="75" y="58" style="fill:#B3B3B3;" width="16" height="2"/>
	<rect x="75" y="61" style="fill:#B3B3B3;" width="16" height="2"/>
	<rect x="75" y="64" style="fill:#B3B3B3;" width="16" height="2"/>
	<rect x="75" y="67" style="fill:#B3B3B3;" width="16" height="2"/>
	<rect x="75" y="70" style="fill:#B3B3B3;" width="16" height="2"/>
	<rect x="33" y="79" style="fill:#B3B3B3;" width="22" height="3"/>
	<rect x="33" y="84" style="fill:#B3B3B3;" width="58" height="2"/>
	<rect x="33" y="87" style="fill:#B3B3B3;" width="58" height="2"/>
	<rect x="33" y="90" style="fill:#B3B3B3;" width="58" height="2"/>
	<rect x="33" y="93" style="fill:#B3B3B3;" width="58" height="2"/>
</g>
</svg>
