<?xml version="1.0" encoding="utf-8"?>
<!-- Generator: Adobe Illustrator 18.0.0, SVG Export Plug-In . SVG Version: 6.00 Build 0)  -->
<!DOCTYPE svg PUBLIC "-//W3C//DTD SVG 1.1//EN" "http://www.w3.org/Graphics/SVG/1.1/DTD/svg11.dtd">
<svg version="1.1" id="Layer_1" xmlns="http://www.w3.org/2000/svg" xmlns:xlink="http://www.w3.org/1999/xlink" x="0px" y="0px"
	 viewBox="0 0 256 256" enable-background="new 0 0 256 256" xml:space="preserve">
<g>
	<circle fill="#37505F" cx="128" cy="128" r="127"/>
	<path fill="#F7F8F9" d="M190.5,52.1h-125c-5.5,0-9.9,4.4-9.9,9.9v88.1c0,5.5,4.4,9.9,9.9,9.9h125c5.5,0,9.9-4.4,9.9-9.9V62
		C200.4,56.5,196,52.1,190.5,52.1z"/>
	<circle fill="#3EA9D7" cx="132.2" cy="84.3" r="22.9"/>
	<path fill="#F2CD56" d="M172.2,135.8L172.2,135.8c-4.7-2-10.4,0.8-12.7,6.2c2.3-5.4,0.2-11.4-4.5-13.4c-4.7-2-10.4,0.8-12.7,6.2
		c2.3-5.4,0.2-11.4-4.5-13.4c-4.7-2-10.4,0.8-12.7,6.2l16.7-40.3c2.3-5.4,0.2-11.4-4.5-13.4c-4.7-2-10.4,0.8-12.7,6.2L108,120.6l0,0
		l-9.7,23.3l-3,7.1l-7.1-18.6c-2-5.1-7.5-7.1-12.4-4.5c-4.9,2.7-7.2,9-5.3,14.1l11.6,30.3c1.3,3.4,2.8,31.3,6.1,32.6l42.7,17.7
		c7.2,3,24.1-21.1,27.5-29.4l5-12l3.6-8.7l9.7-23.3C178.9,143.7,176.9,137.7,172.2,135.8z"/>
	
		<rect x="76.2" y="211.7" transform="matrix(0.9079 0.4192 -0.4192 0.9079 101.4574 -24.8544)" fill="#FFFFFF" width="62.3" height="13.4"/>
	<path fill="#0B2C48" d="M75.3,209.9L62.8,237c18.5,11.1,40.1,17.6,63.2,18l8.3-17.9L75.3,209.9z"/>
</g>
</svg>
