<?xml version="1.0" encoding="utf-8"?>
<!-- Generator: Adobe Illustrator 18.0.0, SVG Export Plug-In . SVG Version: 6.00 Build 0)  -->
<!DOCTYPE svg PUBLIC "-//W3C//DTD SVG 1.1//EN" "http://www.w3.org/Graphics/SVG/1.1/DTD/svg11.dtd">
<svg version="1.1" id="Layer_1" xmlns="http://www.w3.org/2000/svg" xmlns:xlink="http://www.w3.org/1999/xlink" x="0px" y="0px"
	 viewBox="0 0 256 256" enable-background="new 0 0 256 256" xml:space="preserve">
<g>
	<path fill="#4294B8" d="M128,1C57.9,1,1,57.9,1,128c0,15.5,2.8,30.3,7.9,44.1C26.8,220.5,73.3,255,128,255
		c54.7,0,101.2-34.5,119.1-82.9c5.1-13.7,7.9-28.6,7.9-44.1C255,57.9,198.1,1,128,1z"/>
	<rect x="110.3" y="51" fill="#2E4555" width="101.5" height="93.8"/>
	<rect x="114.4" y="69.7" fill="#EDF0F2" width="93.4" height="69.5"/>
	<rect x="202" y="58" fill="#BCBFC2" width="5.7" height="5.7"/>
	<rect x="188.8" y="58" fill="#BCBFC2" width="5.7" height="5.7"/>
	<rect x="175.7" y="58" fill="#BCBFC2" width="5.7" height="5.7"/>
	<rect x="131.1" y="86.4" fill="#BCBFC2" width="59.8" height="3.3"/>
	<rect x="131.1" y="102.8" fill="#BCBFC2" width="59.8" height="3.3"/>
	<rect x="131.1" y="119.3" fill="#BCBFC2" width="59.8" height="3.3"/>
	<rect x="44.2" y="92.1" fill="#36505F" width="154.7" height="112.9"/>
	<rect x="47.6" y="108.8" fill="#EDF0F2" width="147.8" height="92.9"/>
	<g>
		<rect x="59.8" y="122.7" fill="#E65336" width="15.6" height="15.6"/>
		<rect x="59.8" y="147.4" fill="#E65336" width="15.6" height="15.6"/>
		<rect x="59.8" y="172.2" fill="#E65336" width="15.6" height="15.6"/>
		<g>
			<rect x="83.1" y="128.9" fill="#BCBFC2" width="15.2" height="3.3"/>
		</g>
		<g>
			<rect x="83.1" y="153.6" fill="#BCBFC2" width="15.2" height="3.3"/>
		</g>
		<g>
			<rect x="83.1" y="178.3" fill="#BCBFC2" width="15.2" height="3.3"/>
		</g>
	</g>
	<g>
		<rect x="105" y="122.7" fill="#E65336" width="15.6" height="15.6"/>
		<rect x="105" y="147.4" fill="#E65336" width="15.6" height="15.6"/>
		<rect x="105" y="172.2" fill="#E65336" width="15.6" height="15.6"/>
		<g>
			<rect x="128.3" y="128.9" fill="#BCBFC2" width="15.2" height="3.3"/>
		</g>
		<g>
			<rect x="128.3" y="153.6" fill="#BCBFC2" width="15.2" height="3.3"/>
		</g>
		<g>
			<rect x="128.3" y="178.3" fill="#BCBFC2" width="15.2" height="3.3"/>
		</g>
	</g>
	<rect x="150.2" y="122.7" fill="#E65336" width="15.6" height="15.6"/>
	<rect x="150.2" y="147.4" fill="#E65336" width="15.6" height="15.6"/>
	<g>
		<rect x="173.5" y="128.9" fill="#BCBFC2" width="15.2" height="3.3"/>
	</g>
	<g>
		<rect x="173.5" y="153.6" fill="#BCBFC2" width="15.2" height="3.3"/>
	</g>
	<circle fill="#E65336" cx="50.1" cy="100.4" r="2.5"/>
	<circle fill="#F0C949" cx="59.5" cy="100.4" r="2.5"/>
	<circle fill="#39B39B" cx="68.9" cy="100.4" r="2.5"/>
</g>
</svg>
