<?xml version="1.0" encoding="iso-8859-1"?>
<!-- Generator: Adobe Illustrator 15.1.0, SVG Export Plug-In . SVG Version: 6.00 Build 0)  -->
<!DOCTYPE svg PUBLIC "-//W3C//DTD SVG 1.1//EN" "http://www.w3.org/Graphics/SVG/1.1/DTD/svg11.dtd">
<svg version="1.1" id="Layer_1" xmlns="http://www.w3.org/2000/svg" xmlns:xlink="http://www.w3.org/1999/xlink" x="0px" y="0px"
	 width="128px" height="128px" viewBox="0 0 128 128" style="enable-background:new 0 0 128 128;" xml:space="preserve">
<g>
	<path style="fill:#88C5CC;" d="M64,0C28.654,0,0,28.654,0,64c0,35.346,28.654,64,64,64s64-28.654,64-64C128,28.654,99.346,0,64,0z"
		/>
	<g>
		<path style="fill:#F5F5F5;" d="M51,21h44c1.1,0,2,0.9,2,2v82c0,1.1-0.9,2-2,2H33c-1.1,0-2-0.9-2-2V42L51,21z"/>
		<path style="fill:#E6E6E6;" d="M49,42c1.1,0,2-0.9,2-2V21L31,42H49z"/>
	</g>
	<circle style="fill:#E16B5A;" cx="64" cy="68" r="18"/>
	<path style="fill:#F5F5F5;" d="M59.868,60.496C59.391,60.223,59,60.45,59,61v14c0,0.55,0.391,0.777,0.868,0.504l12.264-7.008
		c0.479-0.273,0.479-0.719,0-0.992L59.868,60.496z"/>
</g>
</svg>
