<?xml version="1.0" encoding="iso-8859-1"?>
<!-- Generator: Adobe Illustrator 15.1.0, SVG Export Plug-In . SVG Version: 6.00 Build 0)  -->
<!DOCTYPE svg PUBLIC "-//W3C//DTD SVG 1.1//EN" "http://www.w3.org/Graphics/SVG/1.1/DTD/svg11.dtd">
<svg version="1.1" id="Layer_1" xmlns="http://www.w3.org/2000/svg" xmlns:xlink="http://www.w3.org/1999/xlink" x="0px" y="0px"
	 width="128px" height="128px" viewBox="0 0 128 128" style="enable-background:new 0 0 128 128;" xml:space="preserve">
<g>
	<circle style="fill:#88C5CC;" cx="64" cy="64" r="64"/>
	<g>
		<g>
			<path style="fill:#F5F5F5;" d="M51,23h44c1.1,0,2,0.9,2,2v82c0,1.1-0.9,2-2,2H33c-1.1,0-2-0.9-2-2V44L51,23z"/>
			<path style="fill:#E6E6E6;" d="M49,44c1.1,0,2-0.9,2-2V23L31,44H49z"/>
		</g>
		<g>
			<rect x="38" y="51" style="fill:#E6E6E6;" width="54" height="51"/>
			<rect x="37" y="50" style="fill:#FFFFFF;" width="54" height="51"/>
			<rect x="39" y="52" style="fill:#91D2F2;" width="50" height="38"/>
			<circle style="opacity:0.4;fill:#FFE399;enable-background:new    ;" cx="51" cy="62" r="7"/>
			<circle style="opacity:0.2;fill:#FFE399;enable-background:new    ;" cx="51" cy="62" r="9"/>
			<circle style="fill:#FFE399;" cx="51" cy="62" r="6"/>
			<path style="fill:#F5F5F5;" d="M84,57c-0.034,0-0.066,0.009-0.1,0.01C83.439,54.723,81.422,53,79,53c-2.762,0-5,2.239-5,5
				c0,0.413,0.064,0.808,0.158,1.191C73.477,59.51,73,60.197,73,61c0,1.104,0.896,2,2,2c0.602,0,8.159,0,9,0c1.657,0,3-1.343,3-3
				S85.657,57,84,57z"/>
			<path style="fill:#E6E6E6;" d="M84,57c-0.034,0-0.066,0.009-0.1,0.01C83.439,54.723,81.422,53,79,53
				c-0.16,0-0.313,0.032-0.468,0.047c2.179,0.233,3.942,1.848,4.368,3.963C82.934,57.009,82.965,57,83,57c1.657,0,3,1.343,3,3
				s-1.343,3-3,3c0.488,0,0.854,0,1,0c1.657,0,3-1.343,3-3S85.657,57,84,57z"/>
			<path style="fill:#F5F5F5;" d="M57,61c0.034,0,0.066,0.009,0.1,0.01C57.561,58.723,59.578,57,62,57c2.762,0,5,2.239,5,5
				c0,0.413-0.064,0.808-0.158,1.191C67.523,63.51,68,64.197,68,65c0,1.104-0.896,2-2,2c-0.602,0-8.159,0-9,0c-1.657,0-3-1.343-3-3
				S55.343,61,57,61z"/>
			<path style="fill:#E6E6E6;" d="M66.842,63.191C66.936,62.807,67,62.412,67,62c0-2.761-2.238-5-5-5
				c-0.338,0-0.664,0.041-0.982,0.104C63.291,57.574,65,59.587,65,62c0,0.413-0.064,0.808-0.158,1.191C65.523,63.51,66,64.197,66,65
				c0,1.104-0.896,2-2,2c1.035,0,1.823,0,2,0c1.104,0,2-0.896,2-2C68,64.197,67.523,63.51,66.842,63.191z"/>
			<polygon style="fill:#198058;" points="52,90 65,75 74,80 84,67 89,75 89,90 			"/>
			<polygon style="fill:#F5F5F5;" points="58,83 65,75 74,80 67,78 65,80 64,79 			"/>
			<polygon style="fill:#F5F5F5;" points="84,67 89,75 85,73 83,75 82,72 77,76 			"/>
		</g>
	</g>
</g>
</svg>
