<?xml version="1.0" encoding="iso-8859-1"?>
<!-- Generator: Adobe Illustrator 15.1.0, SVG Export Plug-In . SVG Version: 6.00 Build 0)  -->
<!DOCTYPE svg PUBLIC "-//W3C//DTD SVG 1.1//EN" "http://www.w3.org/Graphics/SVG/1.1/DTD/svg11.dtd">
<svg version="1.1" id="Layer_1" xmlns="http://www.w3.org/2000/svg" xmlns:xlink="http://www.w3.org/1999/xlink" x="0px" y="0px"
	 width="128px" height="128px" viewBox="0 0 128 128" style="enable-background:new 0 0 128 128;" xml:space="preserve">
<g>
	<circle style="fill:#C2D5D8;" cx="64" cy="64" r="64"/>
	<path style="fill:#E16B5A;" d="M55,58H22c-3.3,0-6,2.7-6,6v26c0,3.3,2.7,6,6,6h3.932c-0.095,1.361-0.324,2.587-0.884,3.484
		c-0.584,0.937-0.03,1.393,1.504,0.938c2.149-0.636,4.113-1.92,4.976-4.424H55c3.3,0,6-2.7,6-6v-26C61,60.7,58.3,58,55,58z"/>
	<path style="fill:#CC6152;" d="M55,58h-4c3.3,0,6,2.7,6,6v26c0,3.3-2.7,6-6,6h4c3.3,0,6-2.7,6-6V64C61,60.7,58.3,58,55,58z"/>
	<path style="fill:#CC6152;" d="M55,58h-5v19.111C50,83.014,54.885,88,60.667,88H61V64C61,60.7,58.3,58,55,58z"/>
	<path style="fill:#406A80;" d="M60.667,31h47.666C113.1,31,117,34.789,117,39.557v37.554c0,4.769-3.9,8.891-8.667,8.891h-5.679
		c0.141,2,0.484,3.807,1.332,5.109c0.847,1.308,0.81,1.97-1.041,1.537c-3.549-0.823-6.971-2.705-8.375-6.646H60.667
		C55.9,86.002,52,81.88,52,77.111V39.557C52,34.789,55.9,31,60.667,31z"/>
	<path style="fill:#395F73;" d="M108.333,31h-4C109.1,31,113,34.789,113,39.557v37.554c0,4.769-3.9,8.891-8.667,8.891h4
		c4.767,0,8.667-4.122,8.667-8.891V39.557C117,34.789,113.1,31,108.333,31z"/>
	<g>
		<circle style="fill:#F5F5F5;" cx="70" cy="67" r="3"/>
		<circle style="fill:#F5F5F5;" cx="80" cy="67" r="3"/>
		<circle style="fill:#F5F5F5;" cx="90" cy="67" r="3"/>
		<circle style="fill:#F5F5F5;" cx="100" cy="67" r="3"/>
	</g>
	<g>
		<circle style="fill:#F5F5F5;" cx="25" cy="87" r="2"/>
		<circle style="fill:#F5F5F5;" cx="33" cy="87" r="2"/>
		<circle style="fill:#F5F5F5;" cx="41" cy="87" r="2"/>
	</g>
</g>
</svg>
