<?xml version="1.0" encoding="iso-8859-1"?>
<!-- Generator: Adobe Illustrator 15.1.0, SVG Export Plug-In . SVG Version: 6.00 Build 0)  -->
<!DOCTYPE svg PUBLIC "-//W3C//DTD SVG 1.1//EN" "http://www.w3.org/Graphics/SVG/1.1/DTD/svg11.dtd">
<svg version="1.1" id="Layer_1" xmlns="http://www.w3.org/2000/svg" xmlns:xlink="http://www.w3.org/1999/xlink" x="0px" y="0px"
	 width="128px" height="128px" viewBox="0 0 128 128" style="enable-background:new 0 0 128 128;" xml:space="preserve">
<g>
	<circle style="fill:#4AB8A1;" cx="64" cy="64" r="64"/>
	<path style="fill:#F7EAC6;" d="M29.455,91.027c-1.618-2.492-0.91-5.824,1.582-7.442l4.011-2.604
		c-2.492,1.619-5.824,0.91-7.442-1.582c-1.618-2.491-0.91-5.822,1.582-7.441l3.008-1.953l0.005,0.007
		c5.387-3.495,16.241-10.557,18.544-12.053c4.482-2.911,10.772-6.447,9.778-11.428c12.195-8.969,16.415-0.571,24.309-0.729
		l4.061-2.637l15.303,23.563l-4.107,2.668c1.979,4.877-3.45,10.08-5.436,11.369c-1.924,1.25-21.365,13.875-30.994,20.129
		c-2.471,1.604-4.296,2.789-5.013,3.254l-3.008,1.955l-0.02-0.029c-2.418,1.215-5.414,0.443-6.922-1.879s-0.994-5.372,1.1-7.086
		l-0.019-0.029l-3.51,2.279c-2.492,1.617-5.824,0.91-7.442-1.582c-1.619-2.492-0.91-5.823,1.582-7.442l-3.509,2.279
		C34.405,94.227,31.073,93.52,29.455,91.027z"/>
	<path style="fill:#E6D9B8;" d="M94.798,71.956l-3.008-1.953l-0.005,0.007c-5.387-3.494-16.241-10.557-18.545-12.053
		c-4.481-2.911-10.771-6.447-9.777-11.428c-0.496-0.364-0.984-0.697-1.47-1.017c-0.478,0.314-0.965,0.645-1.47,1.017
		c0.994,4.981-5.296,8.518-9.778,11.428c-2.303,1.496-13.157,8.559-18.544,12.053l-0.005-0.007l-3.008,1.953
		c-2.46,1.599-3.178,4.864-1.638,7.346c0.688,0.659,1.327,1.164,1.784,1.46c0.227,0.147,0.705,0.458,1.374,0.893
		c1.426,0.388,3.003,0.195,4.341-0.674l-2.689,1.746c6.26,4.065,20.257,13.155,27.969,18.164c0.596,0.387,1.151,0.746,1.665,1.08
		c0.515-0.334,1.07-0.693,1.666-1.08c7.711-5.009,21.709-14.099,27.969-18.164l-2.689-1.746c1.338,0.869,2.916,1.061,4.342,0.672
		c0.668-0.434,1.146-0.743,1.373-0.892c0.457-0.296,1.096-0.801,1.783-1.459C97.976,76.82,97.258,73.555,94.798,71.956z"/>
	
		<rect x="95.105" y="38.894" transform="matrix(0.8387 -0.5445 0.5445 0.8387 -13.7091 61.9816)" style="fill:#E6E6E6;" width="5.38" height="30.487"/>
	<path style="fill:#805026;" d="M90.121,37.374l19.861,30.581l17.571-11.411c-1.491-12.852-6.787-24.537-14.735-33.909
		L90.121,37.374z"/>
	<path style="fill:#FFF4D9;" d="M92.139,91.027c1.618-2.492,0.91-5.824-1.582-7.442l-4.011-2.604
		c2.491,1.619,5.823,0.91,7.442-1.582c1.617-2.491,0.91-5.822-1.582-7.441l-3.008-1.953l-0.004,0.007
		c-5.388-3.495-16.242-10.557-18.546-12.053c-4.481-2.911-10.772-6.447-9.778-11.428c-12.195-8.969-21.541-3.906-24.309-0.729
		l-4.061-2.637L17.399,66.727l4.107,2.668c-1.978,4.877,3.45,10.08,5.435,11.369c1.924,1.25,21.365,13.875,30.994,20.129
		c2.471,1.604,4.296,2.789,5.013,3.254l3.007,1.955l0.02-0.029c2.418,1.215,5.414,0.443,6.922-1.879s0.994-5.372-1.1-7.086
		l0.02-0.029l3.51,2.279c2.492,1.617,5.824,0.91,7.441-1.582c1.618-2.492,0.91-5.823-1.582-7.442l3.51,2.279
		C87.189,94.227,90.521,93.52,92.139,91.027z"/>
	<g>
		<path style="fill:#F2E4C2;" d="M66.977,105.068l-0.019,0.029l-3.008-1.953c-0.717-0.465-2.542-1.651-5.013-3.256
			c-9.629-6.253-29.07-18.878-30.994-20.128c-1.985-1.288-7.413-6.491-5.435-11.37l-4.107-2.666l14.548-22.402l-0.247-0.16
			L17.4,66.725l4.107,2.668c-1.978,4.877,3.45,10.08,5.435,11.369c1.924,1.25,21.365,13.875,30.994,20.129
			c2.471,1.604,4.296,2.789,5.013,3.254l3.008,1.955l0.019-0.029c2.277,1.144,5.052,0.509,6.628-1.506
			C71.004,105.759,68.824,105.998,66.977,105.068z"/>
		<path style="fill:#F2E4C2;" d="M76.326,98.354L55.286,84.832c-0.654-0.253-1.42,0.341-0.729,1.021l20.771,13.5
			c2.365,1.537,5.472,0.955,7.166-1.238C80.738,99.443,78.279,99.622,76.326,98.354z"/>
		<path style="fill:#F2E4C2;" d="M85.734,91.666L58.784,74.03c-0.654-0.253-1.42,0.341-0.729,1.021l26.68,17.614
			c2.366,1.537,5.473,0.955,7.168-1.239C90.144,92.756,87.688,92.934,85.734,91.666z"/>
		<path style="fill:#F2E4C2;" d="M87.546,80.072L66.804,66.398c-0.653-0.252-1.42,0.342-0.729,1.022l20.472,13.651
			c2.366,1.537,5.472,0.955,7.167-1.239C91.957,81.162,89.499,81.34,87.546,80.072z"/>
	</g>
	
		<rect x="21.118" y="38.881" transform="matrix(-0.8387 -0.5446 0.5446 -0.8387 14.297 112.4834)" style="fill:#E6E6E6;" width="5.38" height="30.487"/>
	<path style="fill:#406A80;" d="M0.101,60.479l11.512,7.476l19.859-30.581L12.983,25.367C5.502,35.23,0.814,47.324,0.101,60.479z"/>
	<path style="fill:#F7EAC6;" d="M61.544,40.279c-3.661-0.075-13.898,2.167-16.364,1.943c-2.466-0.225-8.871,10.49-11.07,13.065
		c-0.014,0.017-0.026,0.037-0.04,0.054c-0.058,0.062-0.115,0.112-0.173,0.18c-2.041,2.381-5.649,6.142-3.941,8.772
		c1.132,1.743,3.059,2.652,4.995,2.576c0.001,0.003,0.004,0.011,0.004,0.011c0.046-0.004,0.096-0.01,0.145-0.015
		c0.612-0.041,1.222-0.184,1.807-0.428c3.168-1.114,8.142-4.607,13.504-14.128c5.081,3.886,20.025,9.116,34.147-6.65
		C78.431,42.446,65.206,40.354,61.544,40.279z"/>
	<path style="fill:#FFFFFF;" d="M69.21,98.167l-1.567-1.019c-0.172-0.111-0.404-0.063-0.517,0.11l-2.849,4.388
		c-0.112,0.172-0.063,0.404,0.11,0.517l1.566,1.019c1.385,0.898,3.236,0.506,4.135-0.88C70.988,100.917,70.594,99.066,69.21,98.167z
		"/>
	<path style="fill:#FFFFFF;" d="M78.177,90.994l-1.567-1.018c-0.172-0.112-0.404-0.063-0.517,0.109l-2.849,4.387
		c-0.112,0.172-0.063,0.405,0.109,0.518l1.567,1.017c1.384,0.899,3.235,0.507,4.135-0.878
		C79.953,93.744,79.561,91.893,78.177,90.994z"/>
	<path style="fill:#FFFFFF;" d="M87.74,84.419L86.174,83.4c-0.172-0.111-0.405-0.063-0.518,0.109l-2.849,4.387
		c-0.112,0.174-0.063,0.405,0.11,0.518l1.566,1.018c1.385,0.899,3.235,0.506,4.135-0.879C89.518,87.169,89.125,85.318,87.74,84.419z
		"/>
	<path style="fill:#FFFFFF;" d="M90.73,74.257l-1.566-1.018c-0.172-0.112-0.405-0.063-0.518,0.108l-2.849,4.387
		c-0.112,0.174-0.062,0.406,0.11,0.518l1.566,1.018c1.385,0.899,3.235,0.506,4.135-0.879C92.508,77.007,92.113,75.156,90.73,74.257z
		"/>
</g>
</svg>
