<?xml version="1.0" encoding="iso-8859-1"?>
<!-- Generator: Adobe Illustrator 15.0.0, SVG Export Plug-In . SVG Version: 6.00 Build 0)  -->
<!DOCTYPE svg PUBLIC "-//W3C//DTD SVG 1.1//EN" "http://www.w3.org/Graphics/SVG/1.1/DTD/svg11.dtd">
<svg version="1.1" id="Layer_1" xmlns="http://www.w3.org/2000/svg" xmlns:xlink="http://www.w3.org/1999/xlink" x="0px" y="0px"
	 width="128px" height="128px" viewBox="0 0 128 128" style="enable-background:new 0 0 128 128;" xml:space="preserve">
<g>
	<circle style="fill:#C2D5D8;" cx="64" cy="64" r="64"/>
	<path style="fill:#B7C9CC;" d="M124.789,84.02c-0.037-0.095-0.071-0.188-0.113-0.279c-0.067-0.172-0.131-0.346-0.207-0.512
		c-0.067-0.172-0.131-0.347-0.207-0.513c-0.067-0.171-0.131-0.346-0.207-0.512c-0.067-0.171-0.131-0.347-0.207-0.513
		c-0.067-0.17-0.131-0.346-0.206-0.512c-0.068-0.171-0.132-0.346-0.207-0.512c-0.068-0.171-0.132-0.346-0.207-0.512
		c-0.068-0.172-0.131-0.346-0.207-0.512c-0.066-0.168-0.127-0.34-0.202-0.504c-0.069-0.174-0.133-0.352-0.211-0.521
		c-0.067-0.171-0.131-0.347-0.207-0.513c-0.067-0.17-0.131-0.346-0.207-0.512c-0.067-0.171-0.131-0.346-0.207-0.512
		c-0.067-0.171-0.131-0.346-0.207-0.512c-0.067-0.172-0.131-0.346-0.207-0.512c-0.066-0.172-0.131-0.347-0.207-0.513
		c-0.066-0.171-0.131-0.346-0.207-0.512c-0.066-0.171-0.131-0.347-0.207-0.513c-0.066-0.17-0.13-0.344-0.206-0.51
		c-0.067-0.173-0.131-0.348-0.208-0.515c-0.066-0.171-0.131-0.346-0.207-0.512c-0.066-0.171-0.131-0.347-0.207-0.513
		c-0.066-0.17-0.131-0.346-0.206-0.512c-0.067-0.169-0.128-0.341-0.203-0.505c-0.069-0.174-0.132-0.351-0.21-0.521
		c-0.068-0.17-0.131-0.346-0.207-0.512c-0.068-0.171-0.131-0.346-0.207-0.512c-0.068-0.171-0.131-0.346-0.207-0.512
		c-0.067-0.172-0.13-0.346-0.206-0.512c-0.068-0.172-0.131-0.347-0.208-0.514c-0.068-0.171-0.131-0.346-0.207-0.512
		c-0.068-0.171-0.131-0.346-0.207-0.512c-0.068-0.172-0.131-0.346-0.207-0.512c-0.068-0.172-0.131-0.347-0.207-0.513
		c-0.068-0.171-0.131-0.346-0.207-0.512c-0.068-0.171-0.131-0.347-0.207-0.513c-0.068-0.17-0.131-0.346-0.207-0.512
		c-0.068-0.171-0.131-0.346-0.207-0.512c-0.066-0.168-0.127-0.34-0.202-0.503c-0.068-0.174-0.133-0.352-0.211-0.521
		c-0.066-0.171-0.131-0.346-0.207-0.512c-0.066-0.171-0.131-0.346-0.207-0.512c-0.066-0.171-0.131-0.346-0.207-0.512
		c-0.066-0.171-0.131-0.346-0.207-0.512c-0.066-0.171-0.131-0.346-0.207-0.512c-0.066-0.171-0.131-0.346-0.207-0.512
		c-0.066-0.171-0.131-0.346-0.207-0.512c-0.066-0.171-0.13-0.345-0.206-0.511c-0.067-0.172-0.131-0.347-0.208-0.514
		c-0.066-0.171-0.131-0.346-0.206-0.512c-0.067-0.171-0.132-0.346-0.207-0.512c-0.067-0.171-0.132-0.346-0.207-0.512
		c-0.067-0.171-0.132-0.346-0.207-0.512c-0.067-0.171-0.132-0.346-0.207-0.512c-0.067-0.169-0.128-0.341-0.203-0.505
		c-0.069-0.174-0.132-0.351-0.21-0.52c-0.068-0.171-0.131-0.346-0.207-0.512c-0.067-0.171-0.13-0.345-0.206-0.511
		c-0.068-0.172-0.131-0.347-0.208-0.514c-0.068-0.171-0.131-0.346-0.207-0.512c-0.068-0.171-0.131-0.346-0.207-0.512
		c-0.068-0.171-0.131-0.346-0.207-0.512c-0.068-0.171-0.131-0.346-0.207-0.512c-0.068-0.171-0.131-0.346-0.207-0.512
		c-0.068-0.171-0.131-0.346-0.207-0.512c-0.068-0.171-0.131-0.346-0.207-0.512c-0.068-0.171-0.131-0.346-0.207-0.512
		c-0.067-0.171-0.13-0.345-0.206-0.511c-0.068-0.172-0.131-0.347-0.208-0.514c-0.065-0.168-0.128-0.341-0.203-0.505
		c-0.067-0.174-0.133-0.351-0.21-0.52c-0.066-0.171-0.131-0.346-0.207-0.512c-0.066-0.171-0.131-0.346-0.207-0.512
		c-0.066-0.171-0.131-0.346-0.207-0.512c-0.066-0.171-0.131-0.346-0.207-0.512c-0.066-0.171-0.131-0.346-0.207-0.512
		c-0.066-0.171-0.131-0.346-0.207-0.512c-0.066-0.171-0.13-0.345-0.206-0.511c-0.067-0.172-0.131-0.347-0.208-0.514
		c-0.066-0.171-0.131-0.346-0.207-0.512c-0.066-0.171-0.131-0.346-0.206-0.512c-0.067-0.171-0.132-0.346-0.207-0.512
		c-0.067-0.171-0.132-0.346-0.207-0.512c-0.067-0.171-0.132-0.346-0.207-0.512c-0.067-0.168-0.128-0.341-0.203-0.505
		c-0.069-0.174-0.132-0.351-0.21-0.52c-0.068-0.171-0.131-0.346-0.207-0.512c-0.068-0.171-0.131-0.346-0.207-0.512
		c-0.067-0.171-0.13-0.345-0.206-0.511c-0.068-0.172-0.131-0.347-0.208-0.514c-0.068-0.171-0.131-0.346-0.207-0.512
		c-0.068-0.171-0.131-0.346-0.207-0.512c-0.068-0.171-0.131-0.346-0.207-0.512c-0.068-0.171-0.131-0.346-0.207-0.512
		c-0.068-0.171-0.131-0.346-0.207-0.512c-0.068-0.171-0.131-0.346-0.207-0.512c-0.068-0.171-0.131-0.346-0.207-0.512
		c-0.068-0.171-0.131-0.346-0.207-0.512c-0.066-0.171-0.13-0.345-0.206-0.511c-0.066-0.169-0.129-0.342-0.204-0.507
		c-0.067-0.174-0.133-0.351-0.21-0.52c-0.066-0.171-0.131-0.346-0.207-0.512c-0.066-0.171-0.131-0.346-0.207-0.512
		c-0.066-0.171-0.131-0.346-0.207-0.512c-0.066-0.171-0.131-0.346-0.207-0.512c-0.066-0.171-0.131-0.346-0.207-0.512
		c-0.478-1.199-1.138-2.285-2.051-3.198c-2.121-2.121-5.141-2.945-8.469-3.038L62.503,22c0,0-38.892,38.892-50.911,50.912
		c-1.502,1.502-1.919,2.652-1.294,3.947c0.046,0.168,0.124,0.34,0.207,0.512c0.046,0.168,0.124,0.34,0.207,0.512
		c0.046,0.168,0.124,0.34,0.207,0.512c0.046,0.168,0.124,0.34,0.207,0.513c0.046,0.168,0.124,0.34,0.207,0.512
		c0.045,0.167,0.123,0.337,0.206,0.509c0.045,0.17,0.123,0.342,0.207,0.516c0.045,0.168,0.124,0.341,0.207,0.513
		c0.046,0.168,0.124,0.34,0.207,0.512c0.046,0.168,0.124,0.341,0.207,0.513c0.046,0.168,0.124,0.34,0.207,0.512
		c0.046,0.168,0.124,0.34,0.207,0.512c0.046,0.168,0.124,0.34,0.207,0.512c0.046,0.168,0.124,0.34,0.207,0.512
		c0.046,0.168,0.124,0.341,0.207,0.513c0.046,0.168,0.124,0.34,0.207,0.512c0.046,0.168,0.124,0.341,0.207,0.513
		c0.045,0.168,0.124,0.34,0.207,0.513c0.046,0.168,0.123,0.34,0.207,0.512c0.046,0.168,0.123,0.34,0.206,0.513
		c0.046,0.166,0.123,0.338,0.205,0.508c0.046,0.17,0.124,0.343,0.208,0.517c0.046,0.168,0.124,0.34,0.207,0.512
		c0.046,0.168,0.124,0.341,0.207,0.513c0.046,0.168,0.124,0.34,0.207,0.512c0.046,0.168,0.124,0.34,0.207,0.512
		c0.046,0.168,0.124,0.34,0.207,0.512c0.046,0.168,0.124,0.34,0.207,0.512c0.046,0.168,0.124,0.342,0.207,0.514
		c0.046,0.168,0.124,0.34,0.207,0.512c0.046,0.168,0.124,0.34,0.207,0.512c0.046,0.168,0.124,0.34,0.207,0.513
		c0.046,0.168,0.124,0.34,0.207,0.512c0.046,0.168,0.124,0.34,0.207,0.513c0.046,0.168,0.124,0.34,0.207,0.512
		c0.045,0.166,0.123,0.338,0.206,0.509c0.045,0.169,0.123,0.342,0.207,0.516c0.046,0.168,0.124,0.341,0.207,0.513
		c0.045,0.168,0.124,0.34,0.207,0.513c0.046,0.168,0.124,0.34,0.207,0.512c0.046,0.168,0.124,0.34,0.207,0.513
		c0.046,0.168,0.124,0.34,0.207,0.512c0.046,0.168,0.124,0.34,0.207,0.512c0.046,0.168,0.124,0.34,0.207,0.512
		c0.046,0.168,0.124,0.34,0.207,0.512c0.046,0.168,0.124,0.341,0.207,0.513c0.046,0.168,0.124,0.34,0.207,0.512
		c0.046,0.168,0.124,0.341,0.207,0.513c0.045,0.168,0.124,0.34,0.206,0.513c0.047,0.168,0.124,0.34,0.207,0.512
		c0.046,0.167,0.123,0.337,0.205,0.509c0.046,0.17,0.124,0.342,0.208,0.516c0.046,0.168,0.124,0.341,0.207,0.513
		c0.046,0.168,0.124,0.34,0.207,0.512c0.046,0.168,0.124,0.341,0.207,0.513c0.046,0.168,0.124,0.34,0.207,0.512
		c0.046,0.168,0.124,0.34,0.207,0.512c0.046,0.168,0.124,0.34,0.207,0.512c0.046,0.168,0.124,0.342,0.207,0.514
		c0.046,0.168,0.124,0.34,0.207,0.512c0.046,0.168,0.124,0.34,0.207,0.512c0.046,0.168,0.124,0.34,0.207,0.512
		c0.046,0.168,0.124,0.34,0.207,0.513c0.046,0.168,0.124,0.34,0.207,0.512c0.046,0.168,0.124,0.34,0.207,0.513
		c0.046,0.168,0.124,0.34,0.207,0.512c0.045,0.166,0.123,0.337,0.206,0.508c0.045,0.169,0.123,0.343,0.207,0.518
		c0.046,0.168,0.124,0.34,0.207,0.512c0.046,0.168,0.124,0.34,0.207,0.512c0.046,0.168,0.124,0.34,0.207,0.512
		c0.046,0.168,0.124,0.34,0.207,0.512c0.046,0.168,0.124,0.34,0.207,0.513c0.046,0.168,0.124,0.34,0.207,0.512
		c0.046,0.168,0.124,0.34,0.207,0.513c0.011,0.039,0.034,0.082,0.049,0.121C36.52,123.314,49.712,128,64,128
		C92.352,128,116.383,109.557,124.789,84.02z"/>
	<path style="fill:#E6E6E6;" d="M103.725,34.712c-0.093-3.328-0.916-6.348-3.037-8.47c-2.121-2.121-5.142-2.945-8.47-3.038
		L62.503,22c0,0-38.892,38.892-50.911,50.912c-2.122,2.122-2.122,3.535,0,5.656c4.242,4.244,18.385,18.386,18.385,18.386
		s13.436,13.435,18.386,18.385c2.121,2.121,3.535,2.121,5.656,0c12.021-12.021,50.911-50.911,50.911-50.911L103.725,34.712z
		 M81.595,45.334c-2.346-2.346-2.342-6.144,0.002-8.487c2.348-2.346,6.139-2.344,8.483,0.002c2.345,2.345,2.349,6.137,0.002,8.483
		C87.738,47.676,83.94,47.68,81.595,45.334z"/>
	<path style="fill:#E16B5A;" d="M51.189,113.874c-0.203-0.153-0.546-0.495-0.707-0.657l-36.771-36.77
		c-0.162-0.162-0.504-0.504-0.657-0.707c0.153-0.203,0.495-0.545,0.657-0.707l49.982-49.982l28.4,1.151
		c2.986,0.084,5.099,0.791,6.47,2.162c1.369,1.371,2.076,3.475,2.159,6.432l1.153,28.438l-49.982,49.982
		C51.734,113.379,51.393,113.721,51.189,113.874z M85.837,32.095c-2.405,0-4.665,0.936-6.361,2.631
		c-1.697,1.698-2.633,3.958-2.634,6.365c0,2.407,0.936,4.667,2.632,6.365c1.697,1.698,3.957,2.632,6.363,2.632
		c2.407,0,4.668-0.936,6.366-2.634c3.508-3.508,3.507-9.217-0.002-12.726C90.504,33.03,88.243,32.095,85.837,32.095z"/>
	<path style="fill:#D15C50;" d="M81.371,83.743c-0.006-0.011-0.007-0.021-0.013-0.031c-0.044-0.18-0.114-0.353-0.208-0.517
		c-0.044-0.178-0.114-0.35-0.207-0.512c-0.044-0.179-0.113-0.35-0.207-0.513c-0.044-0.178-0.113-0.351-0.207-0.513
		c-0.044-0.178-0.114-0.35-0.207-0.512c-0.044-0.179-0.114-0.351-0.207-0.513c-0.044-0.178-0.114-0.349-0.207-0.512
		c-0.044-0.179-0.114-0.351-0.207-0.513c-0.044-0.178-0.114-0.348-0.207-0.512c-0.044-0.178-0.114-0.35-0.207-0.512
		c-0.044-0.178-0.114-0.349-0.207-0.512c-0.044-0.178-0.114-0.35-0.207-0.512c-0.044-0.179-0.113-0.35-0.207-0.512
		c-0.044-0.179-0.113-0.351-0.207-0.514c-0.044-0.176-0.113-0.346-0.205-0.508c-0.044-0.18-0.114-0.354-0.208-0.518
		c-0.044-0.178-0.114-0.35-0.207-0.512c-0.044-0.178-0.114-0.35-0.207-0.512c-0.044-0.178-0.114-0.35-0.207-0.512
		c-0.044-0.179-0.114-0.35-0.207-0.513c-0.044-0.178-0.114-0.35-0.207-0.512c-0.044-0.179-0.114-0.349-0.207-0.513
		c-0.044-0.178-0.112-0.349-0.207-0.512c-0.044-0.178-0.112-0.35-0.207-0.513c-0.044-0.178-0.113-0.349-0.207-0.512
		c-0.044-0.179-0.113-0.351-0.207-0.513c-0.044-0.178-0.113-0.349-0.207-0.512c-0.044-0.178-0.113-0.35-0.207-0.512
		c-0.044-0.178-0.113-0.35-0.206-0.512c-0.045-0.176-0.112-0.346-0.205-0.508c-0.044-0.181-0.114-0.354-0.208-0.518
		c-0.044-0.178-0.114-0.35-0.207-0.512c-0.044-0.178-0.114-0.35-0.207-0.512c-0.044-0.179-0.113-0.35-0.207-0.513
		c-0.044-0.178-0.113-0.35-0.207-0.513c-0.044-0.178-0.114-0.35-0.207-0.512c-0.044-0.178-0.114-0.351-0.207-0.512
		c-0.044-0.179-0.114-0.35-0.207-0.513c-0.044-0.178-0.114-0.35-0.207-0.512c-0.044-0.178-0.114-0.349-0.207-0.512
		c-0.044-0.178-0.114-0.35-0.207-0.512c-0.044-0.178-0.114-0.349-0.207-0.512c-0.044-0.178-0.114-0.35-0.207-0.512
		c-0.044-0.178-0.113-0.349-0.207-0.511c-0.044-0.177-0.112-0.348-0.205-0.509c-0.044-0.18-0.114-0.353-0.208-0.517
		c-0.044-0.178-0.114-0.349-0.207-0.512c-0.044-0.178-0.114-0.35-0.207-0.512c-0.044-0.178-0.114-0.349-0.207-0.512
		c-0.044-0.178-0.114-0.35-0.207-0.512c-0.044-0.178-0.114-0.349-0.207-0.512c-0.085-0.341-0.254-0.667-0.521-0.934
		c-0.781-0.781-2.048-0.781-2.828,0l-2.286,2.285c-3.475-2.185-8.127-1.772-11.149,1.25c-3.318,3.319-3.057,6.693-1.867,9.494
		c0.063,0.173,0.136,0.343,0.207,0.512c0.063,0.173,0.136,0.343,0.207,0.512c0.063,0.174,0.136,0.344,0.206,0.512
		c0.064,0.174,0.137,0.344,0.207,0.513c0.064,0.173,0.137,0.343,0.207,0.512c0.063,0.169,0.133,0.334,0.202,0.5
		c0.065,0.177,0.138,0.351,0.21,0.522c0.065,0.175,0.137,0.346,0.208,0.516c0.064,0.173,0.137,0.343,0.207,0.512
		c0.064,0.174,0.137,0.344,0.207,0.512c0.064,0.174,0.136,0.344,0.207,0.513c0.064,0.173,0.136,0.343,0.207,0.512
		c0.064,0.173,0.136,0.343,0.207,0.513c0.064,0.172,0.136,0.342,0.207,0.512c0.064,0.173,0.136,0.343,0.207,0.512
		c0.051,0.136,0.106,0.27,0.161,0.402c-0.2,0.822-0.7,1.521-1.397,2.22c-0.682,0.682-1.517,1.11-2.393,1.315
		c-0.007-0.013-0.012-0.024-0.019-0.037c-0.045-0.178-0.114-0.349-0.207-0.512c-0.045-0.178-0.114-0.35-0.207-0.512
		c-0.044-0.178-0.113-0.35-0.207-0.511c-0.044-0.179-0.113-0.351-0.207-0.515c-0.044-0.178-0.114-0.35-0.207-0.512
		c-0.044-0.178-0.114-0.349-0.207-0.512c-0.044-0.178-0.114-0.35-0.207-0.512c-0.044-0.179-0.114-0.35-0.207-0.513
		c-0.044-0.178-0.114-0.35-0.207-0.512c-0.044-0.179-0.114-0.349-0.207-0.513c-0.044-0.178-0.114-0.35-0.207-0.512
		c-0.044-0.178-0.114-0.349-0.207-0.512c-0.044-0.178-0.113-0.349-0.207-0.512c-0.044-0.178-0.112-0.348-0.205-0.51
		c-0.044-0.18-0.114-0.353-0.208-0.517c-0.044-0.178-0.114-0.35-0.207-0.512c-0.044-0.179-0.114-0.349-0.207-0.513
		c-0.044-0.178-0.114-0.35-0.207-0.512c-0.044-0.178-0.114-0.349-0.207-0.512c-0.044-0.178-0.114-0.35-0.207-0.512
		c-0.085-0.342-0.254-0.667-0.521-0.934c-0.78-0.781-2.047-0.781-2.828,0c-2.702,2.701-3.313,6.705-1.852,10.006
		c0.064,0.172,0.134,0.343,0.207,0.512c0.064,0.172,0.134,0.343,0.207,0.512c0.027,0.074,0.053,0.15,0.082,0.225l-2.181,2.181
		c-0.653,0.653-0.753,1.643-0.313,2.407c0.045,0.178,0.114,0.349,0.207,0.512c0.044,0.178,0.114,0.35,0.207,0.512
		c0.044,0.178,0.114,0.35,0.207,0.512c0.044,0.178,0.114,0.351,0.207,0.512c0.044,0.179,0.114,0.35,0.207,0.513
		c0.044,0.176,0.113,0.346,0.205,0.508c0.044,0.179,0.114,0.353,0.208,0.517c0.044,0.179,0.113,0.351,0.207,0.514
		c0.044,0.178,0.114,0.35,0.207,0.512c0.044,0.178,0.114,0.35,0.207,0.512c0.044,0.179,0.114,0.351,0.207,0.513
		c0.044,0.178,0.114,0.349,0.207,0.512c0.044,0.179,0.114,0.351,0.207,0.513c0.044,0.178,0.114,0.348,0.207,0.512
		c0.044,0.178,0.114,0.35,0.207,0.512c0.044,0.178,0.114,0.349,0.207,0.512c0.044,0.178,0.113,0.35,0.207,0.512
		c0.044,0.178,0.113,0.351,0.207,0.514c0.044,0.178,0.114,0.349,0.207,0.512c0.044,0.178,0.114,0.35,0.207,0.512
		c0.044,0.176,0.111,0.346,0.205,0.508c0.044,0.181,0.113,0.354,0.208,0.518c0.044,0.178,0.113,0.35,0.207,0.512
		c0.044,0.178,0.113,0.35,0.207,0.512c0.044,0.179,0.113,0.35,0.207,0.513c0.044,0.178,0.113,0.35,0.207,0.512
		c0.044,0.179,0.113,0.349,0.207,0.513c0.044,0.178,0.112,0.349,0.207,0.512c0.044,0.178,0.112,0.35,0.206,0.513
		c0.045,0.178,0.114,0.349,0.207,0.512c0.044,0.179,0.114,0.351,0.207,0.513c0.044,0.178,0.114,0.349,0.207,0.512
		c0.044,0.178,0.114,0.35,0.207,0.512c0.044,0.178,0.114,0.35,0.207,0.512c0.044,0.178,0.114,0.351,0.207,0.512
		c0.044,0.177,0.113,0.347,0.205,0.509c0.044,0.18,0.114,0.353,0.208,0.517c0.044,0.178,0.113,0.35,0.207,0.512
		c0.044,0.179,0.113,0.351,0.207,0.514c0.044,0.178,0.114,0.35,0.207,0.512c0.044,0.178,0.114,0.35,0.207,0.512
		c0.044,0.179,0.114,0.351,0.207,0.513c0.044,0.178,0.114,0.349,0.207,0.512c0.044,0.179,0.114,0.351,0.207,0.513
		c0.044,0.178,0.114,0.349,0.207,0.512c0.044,0.178,0.114,0.35,0.207,0.512c0.044,0.178,0.114,0.35,0.207,0.512
		c0.044,0.178,0.113,0.35,0.207,0.512c0.044,0.179,0.113,0.351,0.207,0.514c0.044,0.178,0.114,0.349,0.207,0.512
		c0.044,0.176,0.111,0.346,0.205,0.508c0.044,0.18,0.113,0.354,0.208,0.518c0.044,0.178,0.113,0.35,0.207,0.512
		c0.044,0.178,0.113,0.35,0.207,0.512c0.004,0.018,0.015,0.032,0.02,0.049c0.163-0.151,0.331-0.318,0.432-0.418L81.371,83.743z"/>
	<path style="fill:#E6E6E6;" d="M57.096,70.389c-2.551-3.826-2.022-5.603-0.25-7.375c1.95-1.949,5.122-1.949,7.071,0
		c1.949,1.95,1.949,5.122,0,7.071c-0.78,0.781-0.78,2.047,0,2.829c0.781,0.78,2.048,0.78,2.829,0
		c3.021-3.022,3.435-7.675,1.25-11.15l2.285-2.285c0.781-0.781,0.781-2.048,0-2.829c-0.781-0.781-2.048-0.781-2.828,0l-2.286,2.285
		c-3.475-2.185-8.127-1.772-11.149,1.25c-4.589,4.587-2.341,9.287-0.25,12.421c2.552,3.828,2.023,5.604,0.25,7.377
		c-1.948,1.949-5.12,1.949-7.07,0c-1.949-1.949-1.949-5.123,0-7.071c0.781-0.781,0.781-2.048,0-2.829
		c-0.78-0.781-2.047-0.781-2.828,0c-3.022,3.021-3.436,7.674-1.25,11.148l-2.285,2.287c-0.781,0.78-0.781,2.047,0,2.828
		c0.78,0.78,2.047,0.78,2.828,0l2.285-2.285c3.476,2.185,8.127,1.771,11.148-1.25C61.435,78.223,59.188,73.523,57.096,70.389z"/>
</g>
</svg>
